<svg width="41" height="13" viewBox="0 0 41 13" fill="none" xmlns="http://www.w3.org/2000/svg">
<path d="M20.7462 6.21602C20.7462 7.39752 20.3294 7.95352 19.4264 7.95352C18.5234 7.95352 18.1066 7.39752 18.1066 6.21602V2.94952H16.9258V6.35502C16.9258 8.09252 17.8288 9.06552 19.4264 9.06552C21.024 9.06552 21.927 8.09252 21.927 6.35502V2.94952H20.7462V6.21602Z" fill="white"/>
<path d="M27.484 5.86852C27.484 7.32802 26.581 7.95352 25.6085 7.95352C24.4276 7.95352 23.8025 6.91102 23.8025 5.86852C23.8025 4.47852 24.7055 3.78353 25.6085 3.78353C26.7199 3.78353 27.484 4.68702 27.484 5.86852ZM25.8863 2.74103C25.0528 2.74103 24.3582 3.15803 23.872 3.85303V2.94953H22.6911V11.5675H23.872V8.09251C24.3582 8.78751 25.0528 9.13501 25.8169 9.13501C26.6504 9.13501 27.4145 8.78752 27.9007 8.16202C28.387 7.60602 28.6648 6.77202 28.6648 5.93802C28.6648 5.10403 28.387 4.33952 27.9007 3.78353C27.4145 3.08853 26.6504 2.74103 25.8863 2.74103Z" fill="white"/>
<path d="M10.8826 3.01903C10.5353 2.81053 10.2575 2.74103 9.91018 2.74103C9.21556 2.74103 8.59041 3.15803 8.31256 3.78352V2.88003H7.13171V8.85701H8.31256V5.93802C8.31256 4.96502 8.45148 3.92252 9.63233 3.92252C9.84071 3.92252 9.97964 3.92253 10.1186 3.99203L10.8826 3.01903Z" fill="white"/>
<path d="M5.25623 2.88003V3.85303C4.77 3.15803 4.07539 2.74103 3.24185 2.74103C2.40831 2.74103 1.71369 3.08853 1.22746 3.71403C0.741226 4.27003 0.463379 5.03452 0.463379 5.86852C0.463379 6.70251 0.741226 7.53651 1.22746 8.0925C1.71369 8.718 2.47777 9.06551 3.31131 9.06551C4.07539 9.06551 4.77 8.64851 5.25623 8.02301V8.92651C5.25623 9.969 5.04785 11.0115 3.58915 11.0115C2.54723 11.0115 1.85261 10.386 1.85261 9.413V9.3435H0.741226V9.413C0.741226 11.0115 1.92207 12.1235 3.58915 12.1235C6.15924 12.1235 6.50654 10.247 6.50654 8.57901V2.94953H5.25623V2.88003ZM3.45023 7.95351C2.26938 7.95351 1.64423 6.91101 1.64423 5.86852C1.64423 4.47852 2.54723 3.78352 3.45023 3.78352C4.56162 3.78352 5.3257 4.61752 5.3257 5.86852C5.25623 7.32801 4.35323 7.95351 3.45023 7.95351Z" fill="white"/>
<path d="M39.5009 5.31256C38.9452 5.52106 38.3895 5.66006 37.9727 5.66006C37.6254 5.66006 37.417 5.59057 37.2781 5.38207C37.1392 5.17357 37.1392 4.89557 37.2086 4.47857L37.5559 2.94958C37.6949 2.18508 37.6254 1.62909 37.3475 1.28159C37.0697 0.934087 36.6529 0.795079 36.0972 0.795079C35.4721 0.795079 34.9164 1.00358 34.3607 1.49008C34.1523 1.07308 33.6661 0.795079 33.0409 0.795079C32.4852 0.795079 31.999 1.00358 31.5128 1.35108C31.3044 1.00358 30.7487 0.725586 30.1235 0.725586C29.8457 0.725586 29.4984 0.795084 29.2205 0.864583H29.1511L28.9427 1.97658L29.2205 1.83758C29.6373 1.69858 29.9846 1.69858 30.1235 1.83758C30.2625 1.97658 30.2625 2.18508 30.193 2.46308L29.4289 5.72957H30.7487L31.3044 3.43607C31.5822 2.32408 32.0685 1.76808 32.7631 1.76808C32.9715 1.76808 33.1104 1.83758 33.1798 1.97658C33.3188 2.11558 33.3188 2.39358 33.2493 2.81058L32.5547 5.72957H33.8745L34.4996 3.01908C34.6385 2.32408 35.2637 1.76808 35.8889 1.76808C36.0972 1.76808 36.2362 1.83758 36.3056 1.97658C36.4445 2.11558 36.4445 2.39358 36.3751 2.81058L36.0278 4.47857C35.8889 5.17357 35.9583 5.72957 36.3056 6.07707C36.6529 6.49407 37.2086 6.70256 37.9032 6.70256C38.4589 6.70256 39.0841 6.56357 39.7092 6.28557L39.7787 6.21606L40.0565 4.96507L39.5009 5.31256Z" fill="white"/>
<path d="M16.2312 4.61753C16.0923 4.20053 15.8839 3.92254 15.606 3.64454C15.3282 3.36654 15.0504 3.15805 14.6336 3.01905C14.2863 2.88005 13.8 2.81055 13.3138 2.81055C12.8276 2.81055 12.4108 2.88005 11.994 3.01905C11.6467 3.15805 11.2994 3.36654 11.0216 3.64454C10.7437 3.92254 10.5354 4.27003 10.3964 4.61753C10.2575 5.03453 10.188 5.45153 10.188 5.86853C10.188 6.35503 10.2575 6.77203 10.3964 7.18903C10.5354 7.60603 10.7437 7.88402 11.0216 8.16202C11.2994 8.44002 11.5773 8.64852 11.994 8.78752C12.3414 8.92652 12.8276 8.99602 13.3138 8.99602C13.8 8.99602 14.2168 8.92652 14.6336 8.78752C14.9809 8.64852 15.3282 8.44002 15.606 8.16202C15.8839 7.88402 16.0923 7.53653 16.2312 7.18903C16.3701 6.77203 16.4396 6.35503 16.4396 5.86853C16.4396 5.45153 16.3701 4.96503 16.2312 4.61753ZM14.2168 7.88403C14.0084 8.02303 13.7306 8.09252 13.3833 8.09252C13.1054 8.09252 12.8276 8.02303 12.5497 7.88403C12.3414 7.74503 12.133 7.60602 11.994 7.39752C11.8551 7.18902 11.7162 6.98052 11.6467 6.70253C11.5773 6.42453 11.5773 6.14653 11.5773 5.86853C11.5773 5.59053 11.5773 5.31254 11.6467 5.10404C11.7162 4.82604 11.8551 4.61754 11.994 4.40904C12.133 4.20054 12.3414 4.06154 12.5497 3.92254C12.7581 3.78354 13.036 3.71405 13.3833 3.71405C13.6611 3.71405 13.939 3.78354 14.2168 3.92254C14.4252 4.06154 14.6336 4.20054 14.7725 4.40904C14.9114 4.61754 15.0504 4.82604 15.1198 5.10404C15.1893 5.38204 15.1893 5.66003 15.1893 5.86853C15.1893 6.14653 15.1893 6.42453 15.1198 6.70253C15.0504 6.98052 14.9114 7.18902 14.7725 7.39752C14.6336 7.60602 14.4252 7.81453 14.2168 7.88403Z" fill="white"/>
</svg>
