<svg width="44" height="7" viewBox="0 0 44 7" fill="none" xmlns="http://www.w3.org/2000/svg">
<path d="M7.12204 6.27403H5.3855V2.03452L4.27411 6.34352H3.09327L1.98188 2.03452V6.34352H0.592651V0.366516H3.0238L3.85735 3.56352L4.69089 0.366516H7.12204V6.27403Z" fill="white"/>
<path d="M12.1233 6.27405H7.60825V0.297058H12.1233V1.68705H9.41426V2.59055H11.5676V3.91105H9.41426V4.88405H12.1233V6.27405Z" fill="white"/>
<path d="M12.5401 0.297058H14.7629C15.5964 0.297058 16.291 0.436062 16.9857 1.06156C17.6108 1.68706 17.8887 2.45155 17.8887 3.35505C17.8887 4.11955 17.6108 4.95355 17.0551 5.50955C16.43 6.13505 15.7353 6.34355 14.9018 6.34355H12.5401V0.297058ZM14.624 4.95355C14.9018 4.95355 15.0407 4.95356 15.2491 4.81456C15.388 4.74506 15.527 4.60605 15.6659 4.39755C15.8743 4.05005 15.9437 3.63305 15.9437 3.21605C15.9437 2.79905 15.8048 2.31255 15.5964 1.96505C15.3186 1.61755 15.0407 1.61755 14.624 1.61755H14.4156V4.88406H14.624V4.95355Z" fill="white"/>
<path d="M20.0419 6.27405H18.1664V0.297058H20.0419V6.27405Z" fill="white"/>
<path d="M23.7929 5.09254H22.1952L21.8479 6.27405H20.3198L22.1952 0.297058H24.1402L26.0156 6.27405H24.1402L23.7929 5.09254ZM23.515 3.84155L23.0288 2.10406L22.5425 3.84155H23.515Z" fill="white"/>
<path d="M30.8779 4.11953C30.739 5.50953 29.7665 6.41302 28.3773 6.41302C26.5713 6.41302 25.5988 5.09253 25.5988 3.42453C25.5988 1.68704 26.4324 0.227539 28.3079 0.227539C29.836 0.227539 30.739 1.13104 30.8085 2.66003L29.0719 2.72953C29.0719 2.24304 28.8635 1.61753 28.3079 1.61753C27.4743 1.61753 27.4743 2.86853 27.4743 3.42453C27.4743 4.05003 27.5438 5.02303 28.3079 5.02303C28.8635 5.02303 29.0719 4.53652 29.1414 4.05003L30.8779 4.11953Z" fill="white"/>
<path d="M36.8517 3.35503C36.8517 5.09252 35.8097 6.41302 34.0037 6.41302C32.1977 6.41302 31.1558 5.02302 31.1558 3.35503C31.1558 1.54803 32.1977 0.227539 34.0037 0.227539C35.8097 0.227539 36.8517 1.54803 36.8517 3.35503ZM33.1007 3.35503C33.1007 3.91103 33.1702 5.02303 34.0037 5.02303C34.8373 5.02303 34.9067 3.91103 34.9067 3.35503C34.9067 2.79903 34.8373 1.61753 34.0037 1.61753C33.1702 1.54803 33.1007 2.72953 33.1007 3.35503Z" fill="white"/>
<path d="M43.6588 6.27403H41.9223V2.03452L40.8109 6.34352H39.6301L38.5187 2.03452V6.34352H37.1295V0.366516H39.5606L40.3941 3.56352L41.2277 0.366516H43.6588V6.27403Z" fill="white"/>
</svg>
