<svg width="54" height="16" viewBox="0 0 54 16" fill="none" xmlns="http://www.w3.org/2000/svg">
<g opacity="0.5">
<path opacity="0.5" d="M45.2522 15.722L43.6546 9.60596L46.7804 15.0965L46.7109 15.166C46.2942 15.444 45.8079 15.583 45.3217 15.722H45.2522ZM44.1408 10.7875L45.3912 15.5135C45.8079 15.3745 46.2247 15.2355 46.572 15.027L44.1408 10.7875Z" fill="white"/>
<path opacity="0.5" d="M42.4738 15.722H42.4043C41.9181 15.583 41.5013 15.3745 41.0151 15.166L40.9456 15.0965L43.7935 10.162H43.9325V10.301L42.4738 15.722ZM41.2234 15.027C41.5708 15.2355 41.9875 15.3745 42.4043 15.5135L43.6546 10.7875L41.2234 15.027Z" fill="white"/>
<path opacity="0.5" d="M43.863 15.861H43.7935V9.5365L45.3911 15.6525H45.3217C44.8354 15.861 44.3492 15.861 43.863 15.861ZM43.9324 10.857V15.722C44.3492 15.722 44.766 15.6525 45.1828 15.583L43.9324 10.857Z" fill="white"/>
<path opacity="0.5" d="M43.863 15.861C43.3768 15.861 42.8905 15.7915 42.4043 15.6525H42.3348L43.9324 9.5365V15.861H43.863ZM42.5432 15.583C42.96 15.6525 43.3768 15.722 43.7935 15.722V10.857L42.5432 15.583Z" fill="white"/>
<path opacity="0.5" d="M46.6415 15.166L43.7935 10.2315L43.863 10.0925L47.9612 14.193L47.8918 14.2625C47.5445 14.61 47.1277 14.888 46.7109 15.166H46.6415ZM44.2798 10.718L46.7109 14.9575C47.0582 14.749 47.4056 14.471 47.6834 14.193L44.2798 10.718Z" fill="white"/>
<path opacity="0.5" d="M39.9037 14.2625C39.4869 13.8455 39.2091 13.4285 38.9312 13.0115L38.8618 12.942L43.7241 10.0925L43.7935 10.023L43.863 10.2315H43.7935L39.9037 14.2625ZM39.1396 13.0115C39.348 13.359 39.6258 13.7065 39.9037 14.054L43.3073 10.6485L39.1396 13.0115Z" fill="white"/>
<path opacity="0.5" d="M43.863 10.301L38.8618 7.45148L38.9312 7.38198C39.2091 6.96498 39.4869 6.54798 39.8342 6.20049L39.9037 6.13098L43.9324 10.162L43.863 10.301ZM39.1396 7.38198L43.3767 9.81447L39.9037 6.40899C39.6258 6.68699 39.348 7.03448 39.1396 7.38198Z" fill="white"/>
<path opacity="0.5" d="M44.2798 10.718L43.863 10.301L43.9325 10.2315L43.863 10.301L39.8342 6.27003L39.9037 6.20054C40.251 5.85304 40.6678 5.57504 41.0845 5.29704L41.154 5.22754L44.2798 10.718ZM40.0426 6.27003L43.4463 9.67552L41.0151 5.43604C40.6678 5.71404 40.3205 5.99204 40.0426 6.27003Z" fill="white"/>
<path opacity="0.5" d="M44.1408 10.7875L41.0151 5.297L41.0845 5.2275C41.5013 4.9495 41.9875 4.81051 42.4738 4.67151H42.5432L44.1408 10.7875ZM41.2235 5.436L43.6546 9.6755L42.4043 4.9495C41.9875 5.019 41.5708 5.2275 41.2235 5.436Z" fill="white"/>
<path opacity="0.5" d="M44.2103 10.301H43.863L38.3755 8.8415V8.77199C38.5144 8.2855 38.7228 7.8685 38.9312 7.382L39.0007 7.3125L44.2103 10.301ZM38.5839 8.70249L43.3073 9.95348L39.0701 7.521C38.8618 7.938 38.7228 8.28549 38.5839 8.70249Z" fill="white"/>
<path opacity="0.5" d="M43.863 10.301H38.1671V10.2315C38.1671 9.745 38.2366 9.25851 38.3755 8.77202V8.70251L44.002 10.2315L43.863 10.301ZM38.3755 10.162H43.2379L38.5144 8.91101C38.445 9.2585 38.3755 9.74499 38.3755 10.162Z" fill="white"/>
<path opacity="0.5" d="M41.0845 15.166L41.0151 15.0965C40.5983 14.8185 40.1815 14.5405 39.8342 14.193L39.7648 14.1235L43.7935 10.0925H44.0714L43.9325 10.2315L41.0845 15.166ZM40.0426 14.193C40.3205 14.471 40.6678 14.749 41.0151 14.9575L43.4462 10.718L40.0426 14.193Z" fill="white"/>
<path opacity="0.5" d="M39.0007 13.1505L38.9312 13.081C38.6534 12.664 38.5144 12.1775 38.3755 11.691V11.6215L43.863 10.162H44.2103L43.9325 10.301L39.0007 13.1505ZM38.5839 11.7605C38.7228 12.1775 38.8618 12.5945 39.0701 12.942L43.3073 10.5095L38.5839 11.7605Z" fill="white"/>
<path opacity="0.5" d="M38.445 11.7605V11.6909C38.3061 11.2045 38.2366 10.718 38.2366 10.2315V10.162H44.5576L38.445 11.7605ZM38.3755 10.301C38.3755 10.718 38.445 11.135 38.5144 11.552L43.2378 10.301H38.3755Z" fill="white"/>
<path opacity="0.5" d="M43.6546 10.7875L45.2522 4.67151H45.3217C45.8079 4.81051 46.2247 5.019 46.7109 5.2275L46.7804 5.297L43.6546 10.7875ZM45.3912 4.9495L44.1408 9.6755L46.572 5.436C46.1552 5.2275 45.8079 5.019 45.3912 4.9495Z" fill="white"/>
<path opacity="0.5" d="M43.4462 10.718L46.572 5.22754L46.6415 5.29704C47.0582 5.57504 47.475 5.85304 47.8223 6.20054L47.8918 6.27003L43.4462 10.718ZM46.7109 5.50554L44.2798 9.74502L47.6834 6.33954C47.4055 5.99204 47.0582 5.71404 46.7109 5.50554Z" fill="white"/>
<path opacity="0.5" d="M47.8223 14.2625L43.863 10.301L44.0019 10.162C44.3492 10.5095 44.6965 10.7875 45.1133 10.996C45.5301 11.2045 45.9468 11.413 46.4331 11.552L48.8642 12.942L48.7948 13.0115C48.5169 13.498 48.2391 13.915 47.8223 14.2625ZM44.9049 11.135L47.8223 14.054C48.1002 13.776 48.378 13.4285 48.5864 13.081L46.3636 11.7605C45.8774 11.6215 45.4606 11.413 44.9744 11.2045C44.9744 11.135 44.9049 11.135 44.9049 11.135Z" fill="white"/>
<path opacity="0.5" d="M48.7253 13.1505L45.7385 11.413L46.3636 11.552C46.8498 11.691 47.2666 11.7605 47.7528 11.7605C48.239 11.7605 48.7253 11.691 49.142 11.552L49.281 11.4825L49.2115 11.6215C49.0726 12.108 48.8642 12.525 48.6558 13.0115L48.7253 13.1505ZM46.8498 11.83L48.6558 12.8725C48.8642 12.525 49.0031 12.1775 49.142 11.7605C48.7253 11.83 48.2391 11.8995 47.8223 11.8995C47.475 11.969 47.1971 11.8995 46.8498 11.83Z" fill="white"/>
<path opacity="0.5" d="M43.7935 10.857V4.53253H43.863C44.3492 4.53253 44.8354 4.60203 45.3217 4.74103H45.3911L43.7935 10.857ZM43.9324 4.74103V9.60603L45.1828 4.88003C44.766 4.81053 44.3492 4.74103 43.9324 4.74103Z" fill="white"/>
<path opacity="0.5" d="M43.9324 10.857L42.3348 4.74103H42.4043C42.8905 4.60203 43.3768 4.53253 43.863 4.53253H43.9324V10.857ZM42.5432 4.88003L43.7935 9.60603V4.74103C43.3768 4.74103 42.96 4.81053 42.5432 4.88003Z" fill="white"/>
<path opacity="0.5" d="M47.8223 11.969H47.7529V5.64453L49.3505 11.7605H49.281C48.7948 11.8995 48.3086 11.969 47.8223 11.969ZM47.8918 6.89553V11.7605C48.3086 11.7605 48.7253 11.691 49.1421 11.6215L47.8918 6.89553Z" fill="white"/>
<path opacity="0.5" d="M49.2116 11.7605L47.614 5.64453L50.7397 11.135L50.6702 11.2045C50.2535 11.4825 49.7673 11.6215 49.281 11.7605H49.2116ZM48.0307 6.89553L49.281 11.6215C49.6978 11.4825 50.1146 11.3435 50.4619 11.135L48.0307 6.89553Z" fill="white"/>
<path opacity="0.5" d="M47.8918 11.9689H47.8223C47.3361 11.9689 46.8498 11.8994 46.3636 11.7604H46.2942L47.8223 6.13098L47.9612 6.26998V6.33948V11.9689H47.8918ZM46.5025 11.6215C46.9193 11.6909 47.3361 11.7604 47.7529 11.7604V6.89548L46.5025 11.6215Z" fill="white"/>
<path opacity="0.5" d="M46.4331 11.7605H46.3636C45.8774 11.6215 45.4606 11.413 44.9744 11.2045L44.9049 11.135L48.0307 5.64453L46.4331 11.7605ZM45.1133 11.0655C45.4606 11.274 45.8774 11.413 46.2942 11.552L47.5445 6.82602L45.1133 11.0655Z" fill="white"/>
<path opacity="0.5" d="M45.0439 11.2045L44.9744 11.135C44.5576 10.857 44.1408 10.579 43.7935 10.2315L43.7241 10.162L48.1697 5.71405L45.0439 11.2045ZM44.0019 10.2315C44.2798 10.5095 44.6271 10.7875 45.0439 10.996L47.4751 6.75654L44.0019 10.2315Z" fill="white"/>
<path opacity="0.5" d="M53.2403 7.799L47.7528 6.33948H47.6834V6.13098H47.7528H53.3792V6.20049C53.3792 6.68699 53.3098 7.17348 53.1709 7.65999L53.2403 7.799ZM48.4475 6.33948L53.1709 7.59049C53.2403 7.17349 53.3098 6.75649 53.3098 6.33948H48.4475Z" fill="white"/>
<path opacity="0.5" d="M47.8223 6.40904L47.6834 6.33954L49.1421 0.779541H49.2115C49.6978 0.918541 50.1145 1.12704 50.6008 1.33554L50.6702 1.40504L47.8223 6.40904ZM49.3505 0.988043L48.1001 5.71404L50.5313 1.47454C50.1145 1.26604 49.6978 1.12704 49.3505 0.988043Z" fill="white"/>
<path opacity="0.5" d="M47.7529 6.54802V0.571045H47.8223C48.3086 0.571045 48.7948 0.640547 49.281 0.779546H49.3505L47.8918 6.27001L47.7529 6.54802ZM47.8918 0.779546V5.64452L49.1421 0.918543C48.7253 0.849044 48.3086 0.779546 47.8918 0.779546Z" fill="white"/>
<path opacity="0.5" d="M47.8918 6.89552L46.2942 0.779546H46.3636C46.8499 0.640547 47.3361 0.571045 47.8223 0.571045H47.8918V6.89552ZM46.5025 0.918543L47.7529 5.64453V0.779546C47.3361 0.779546 46.8498 0.849044 46.5025 0.918543Z" fill="white"/>
<path opacity="0.5" d="M47.5445 6.61755L50.6008 1.33557L50.6702 1.40506C51.087 1.68306 51.5038 1.96107 51.8511 2.30856L51.9205 2.37807L47.8918 6.40906L47.5445 6.61755ZM50.6702 1.54407L48.2391 5.78356L51.6427 2.37807C51.3649 2.03057 51.0175 1.75257 50.6702 1.54407Z" fill="white"/>
<path opacity="0.5" d="M47.8223 6.33954H47.614L51.7817 2.16956L51.8511 2.23906C52.1984 2.58656 52.4763 3.00355 52.7541 3.42055L52.8236 3.49005L47.8223 6.33954ZM51.7817 2.44755L48.3086 5.92254L52.5458 3.49005C52.3374 3.07305 52.0595 2.72555 51.7817 2.44755Z" fill="white"/>
<path opacity="0.5" d="M52.6846 9.18896L47.7528 6.33948H47.6834V6.13098L47.8223 6.20049L53.3098 7.65997V7.72947C53.1708 8.21597 52.9625 8.63296 52.7541 9.11946L52.6846 9.18896ZM48.378 6.54798L52.6152 8.98046C52.8235 8.63297 52.9625 8.21597 53.1014 7.79898L48.378 6.54798Z" fill="white"/>
<path opacity="0.5" d="M47.5445 6.33952L47.7529 6.20053L53.2403 4.74103V4.81053C53.3792 5.29703 53.4487 5.78352 53.4487 6.27002V6.33952H47.5445ZM53.1709 4.94953L48.4475 6.20053H53.3098C53.3098 5.78353 53.2403 5.36653 53.1709 4.94953Z" fill="white"/>
<path opacity="0.5" d="M47.1972 6.54803L52.6846 3.42053L52.7541 3.49003C53.0319 3.90703 53.1709 4.39353 53.3098 4.88003V4.94953L47.1972 6.54803ZM52.6152 3.55953L48.378 5.99203L53.1014 4.74103C52.9625 4.32403 52.8236 3.97653 52.6152 3.55953Z" fill="white"/>
<path opacity="0.5" d="M48.239 6.7565L43.7935 2.30849L43.863 2.239C44.2103 1.8915 44.6271 1.6135 45.0438 1.3355L45.1133 1.26599L48.239 6.7565ZM44.0019 2.30849L47.4055 5.714L44.9744 1.47449C44.6271 1.75249 44.2798 2.03049 44.0019 2.30849Z" fill="white"/>
<path opacity="0.5" d="M48.0307 6.89554L44.9049 1.40504L44.9744 1.33554C45.3912 1.05754 45.8774 0.918541 46.3636 0.779541H46.4331V0.849045L48.0307 6.89554ZM45.1133 1.47454L47.5445 5.71404L46.2942 0.988043C45.8774 1.12704 45.5301 1.26604 45.1133 1.47454Z" fill="white"/>
<path opacity="0.5" d="M47.7529 6.33949C47.4055 5.99199 47.0582 5.714 46.6415 5.5055C46.2247 5.297 45.8079 5.0885 45.3217 4.9495L42.8905 3.5595L42.96 3.49C43.2378 3.073 43.5157 2.65601 43.863 2.30851L43.9325 2.23901L47.9612 6.26999L47.7529 6.33949ZM45.3217 4.741C45.8079 4.88 46.2247 5.0885 46.7109 5.297C46.7109 5.297 46.7804 5.297 46.7804 5.3665L43.863 2.4475C43.5852 2.7255 43.3073 3.07301 43.0989 3.42051L45.3217 4.741Z" fill="white"/>
<path opacity="0.5" d="M45.8774 5.08855L45.2522 4.94955C44.766 4.81055 44.2798 4.74104 43.863 4.74104C43.3768 4.74104 42.8905 4.81055 42.4738 4.94955L42.3348 5.01905L42.4043 4.88004C42.5432 4.39354 42.7516 3.97653 42.96 3.49003L43.0295 3.42053L45.8774 5.08855ZM43.0295 3.55953C42.8211 3.90704 42.6821 4.25454 42.5432 4.67155C42.96 4.60205 43.4462 4.53254 43.863 4.53254C44.2103 4.53254 44.4881 4.53254 44.766 4.60204L43.0295 3.55953Z" fill="white"/>
<path opacity="0.5" d="M51.7817 10.3705L47.7529 6.33956L47.8223 6.20056L52.8236 9.05003L52.7541 9.11954C52.4763 9.53653 52.1984 9.95353 51.7817 10.3705ZM48.3086 6.68706L51.7817 10.162C52.0595 9.88403 52.3373 9.53653 52.5457 9.11954L48.3086 6.68706Z" fill="white"/>
<path opacity="0.5" d="M50.6008 11.2045L47.475 5.71405L51.9205 10.162L51.8511 10.2315C51.5038 10.579 51.087 10.857 50.6702 11.135L50.6008 11.2045ZM48.2391 6.75654L50.6702 10.996C51.0175 10.7875 51.3649 10.5095 51.6427 10.2315L48.2391 6.75654Z" fill="white"/>
</g>
<path d="M5.17284 10.2318H4.40877V7.66026L3.01953 9.32825C2.95007 9.39775 2.88061 9.39775 2.81115 9.32825L1.42191 7.66026V10.2318H0.657837V6.68727C0.657837 6.47877 0.866221 6.27026 1.07461 6.27026C1.21353 6.27026 1.35245 6.33977 1.42191 6.47876L2.88061 8.28576L4.40877 6.40927C4.47823 6.33977 4.61715 6.27026 4.68661 6.27026C4.89499 6.27026 5.10338 6.47877 5.10338 6.68727V10.2318H5.17284Z" fill="white"/>
<path d="M24.9694 10.2315H25.8724L26.3587 9.18903H28.0952L28.6509 10.2315H29.5539L27.609 6.47852C27.5395 6.33952 27.4006 6.27002 27.2617 6.27002C27.1227 6.27002 26.9838 6.33952 26.9143 6.47852L24.9694 10.2315ZM27.1922 7.38203L27.7479 8.49403H26.6365L27.1922 7.38203Z" fill="white"/>
<path d="M11.4939 10.2316H10.9382L8.29865 7.59056V10.2316H7.53458V6.68706C7.53458 6.47856 7.74296 6.27005 7.95134 6.27005C8.09026 6.27005 8.15973 6.33956 8.29865 6.40906L10.7298 8.84156V6.47856C10.7298 6.33956 10.8687 6.20056 11.0076 6.20056H11.2855C11.4244 6.20056 11.5633 6.33956 11.5633 6.47856V10.2316H11.4939Z" fill="white"/>
<path d="M14.7585 6.33952C14.4807 6.27002 14.2029 6.27002 13.7861 6.27002H12.6747C12.4663 6.27002 12.2579 6.47852 12.2579 6.68702V10.2315H13.5777C13.9945 10.2315 14.3418 10.162 14.6891 10.0925C15.731 9.81453 16.2867 9.11953 16.2867 8.21603C16.2867 7.24302 15.731 6.61752 14.7585 6.33952ZM14.5502 9.39753C14.2723 9.46703 13.9945 9.46703 13.6472 9.46703H13.1609V7.03453H13.7861C14.1334 7.03453 14.4112 7.03453 14.6196 7.10403C15.2448 7.24303 15.5226 7.59052 15.5226 8.21603C15.4532 8.77203 15.1753 9.18903 14.5502 9.39753Z" fill="white"/>
<path d="M32.3324 8.63305C32.9575 8.42456 33.2354 8.07706 33.2354 7.45156C33.2354 6.68706 32.6102 6.20056 31.6377 6.20056H30.318C30.1096 6.20056 29.9012 6.40905 29.9012 6.61755V10.162H30.6653V8.70255H31.3599L32.3324 10.162H33.3048L32.3324 8.63305ZM30.7347 8.00755V7.03456H31.7072C31.985 7.03456 32.4018 7.10405 32.4018 7.52105C32.4018 7.72955 32.3324 8.00755 31.5683 8.00755H30.7347Z" fill="white"/>
<path d="M5.93692 10.2315H6.70102V6.54803C6.70102 6.40903 6.56209 6.27002 6.42317 6.27002H6.14532C6.00639 6.27002 5.86746 6.40903 5.86746 6.54803V10.2315H5.93692Z" fill="white"/>
<path d="M24.4832 10.2315H23.6497V8.56353H21.5658V10.2315H20.8018V6.54803C20.8018 6.40903 20.9407 6.27002 21.0796 6.27002H21.3574C21.4964 6.27002 21.6353 6.40903 21.6353 6.54803V7.86853H23.7191V6.54803C23.7191 6.40903 23.8581 6.27002 23.997 6.27002H24.2748C24.4137 6.27002 24.5527 6.40903 24.5527 6.54803V10.2315H24.4832Z" fill="white"/>
<path d="M18.579 7.86854C18.0233 7.79904 17.676 7.72955 17.676 7.38205C17.676 7.10405 17.9538 6.96505 18.44 6.96505C18.9957 6.96505 19.4125 7.17355 19.6209 7.24305C19.6904 7.24305 19.6904 7.24305 19.6904 7.17355L19.8987 6.68706C19.8987 6.68706 19.8987 6.68705 19.8987 6.61755C19.8987 6.54805 19.8987 6.54806 19.8293 6.54806C19.4125 6.33956 18.8568 6.20056 18.3706 6.20056C17.3981 6.20056 16.8424 6.61756 16.8424 7.38205C16.8424 7.72955 16.9813 8.00754 17.1897 8.21604C17.4676 8.42454 17.9538 8.49404 18.3706 8.56354C18.9263 8.63304 19.2736 8.70254 19.2736 8.98054C19.2736 9.46704 18.6484 9.46703 18.3706 9.46703C17.9538 9.46703 17.537 9.32803 17.1897 9.11954L17.1203 9.05003L17.0508 9.11954L16.773 9.60603L16.7035 9.81453L16.773 9.88403C17.0508 10.0925 17.537 10.301 18.3011 10.301C19.343 10.301 20.0377 9.81453 20.0377 9.05003C20.1071 8.07704 19.2736 7.93804 18.579 7.86854Z" fill="white"/>
<path d="M36.639 8.42453C36.639 8.49403 36.5695 8.56353 36.5001 8.56353H34.7635V9.46703H36.8474V10.2315H33.93V6.68702C33.93 6.47852 34.1384 6.27002 34.3468 6.27002H36.639C36.7085 6.27002 36.7779 6.33953 36.7779 6.40903V6.82602C36.7779 6.89552 36.7085 6.96502 36.639 6.96502H34.7635V7.79903H36.5001C36.5695 7.79903 36.639 7.86853 36.639 7.93803V8.42453Z" fill="white"/>
<path d="M43.863 16C40.6678 16 38.0282 13.4285 38.0282 10.162C38.0282 6.96502 40.5983 4.32404 43.863 4.32404C45.3912 4.32404 46.8499 4.94953 47.9613 5.99203L47.614 6.33952C46.6415 5.36653 45.2523 4.81053 43.863 4.81053C40.9456 4.81053 38.5839 7.17352 38.5839 10.0925C38.5839 13.0115 40.9456 15.3745 43.863 15.3745C46.2942 15.3745 48.4475 13.7065 49.0032 11.3435L49.4894 11.4825C48.8643 14.193 46.572 16 43.863 16Z" fill="white"/>
<path d="M43.863 10.718C43.5852 10.718 43.3768 10.5095 43.3768 10.2315C43.3768 9.9535 43.5852 9.745 43.863 9.745C44.1409 9.745 44.3492 9.9535 44.3492 10.2315C44.3492 10.5095 44.1409 10.718 43.863 10.718ZM43.863 10.162C43.863 10.162 43.863 10.2315 43.863 10.162C43.863 10.2315 43.863 10.2315 43.863 10.162C43.863 10.2315 43.863 10.2315 43.863 10.162C43.863 10.2315 43.863 10.162 43.863 10.162Z" fill="white"/>
<path d="M47.8223 12.0385C46.2942 12.0385 44.8355 11.4825 43.7935 10.3705L44.1408 10.023C45.1133 10.996 46.4331 11.552 47.8223 11.552C48.3085 11.552 48.7948 11.4825 49.2115 11.3435C51.5038 10.718 53.1014 8.63303 53.1014 6.20054C53.1014 3.28155 50.7397 0.918549 47.8223 0.918549C45.3912 0.918549 43.2378 2.58655 42.6822 4.94954L42.1959 4.81054C42.8211 2.16955 45.1828 0.362549 47.8223 0.362549C51.0175 0.362549 53.6571 2.93405 53.6571 6.20054C53.6571 8.84153 51.9205 11.135 49.3505 11.83C48.8642 11.969 48.3085 12.0385 47.8223 12.0385Z" fill="white"/>
<path d="M47.8223 6.68704C47.5445 6.68704 47.4055 6.47853 47.4055 6.27003C47.4055 5.99202 47.6139 5.85303 47.8223 5.85303C48.1002 5.85303 48.2391 6.06153 48.2391 6.27003C48.2391 6.47853 48.0307 6.68704 47.8223 6.68704ZM47.8223 6.20053C47.7529 6.20053 47.7529 6.20053 47.8223 6.20053C47.7529 6.27004 47.8223 6.33954 47.8223 6.33954C47.8223 6.27003 47.8918 6.27004 47.8223 6.20053C47.8918 6.20053 47.8223 6.20053 47.8223 6.20053Z" fill="white"/>
<path d="M47.6635 6.08103L43.6991 10.0757L44.0442 10.4185L48.0085 6.42383L47.6635 6.08103Z" fill="white"/>
</svg>
