<svg width="42" height="15" viewBox="0 0 42 15" fill="none" xmlns="http://www.w3.org/2000/svg">
<path d="M10.555 14.5405C10.4855 14.5405 10.3466 14.471 10.2077 14.2625L9.86036 13.2895H7.70704L7.35974 14.2625C7.29027 14.471 7.15135 14.5405 7.01243 14.5405C6.8735 14.5405 6.66512 14.4015 6.66512 14.193C6.66512 14.1235 6.66512 14.054 6.73459 13.9845L8.40166 9.81446C8.54059 9.46696 8.67951 9.46696 8.81844 9.46696C8.95736 9.46696 9.09629 9.53646 9.23521 9.81446L10.9023 13.9845C10.9717 14.054 10.9718 14.1235 10.9718 14.193C10.9023 14.4015 10.6939 14.5405 10.555 14.5405ZM9.58252 12.5945L8.74897 10.3705L7.91544 12.5945H9.58252ZM14.5837 10.023C14.6532 9.95347 14.6532 9.81446 14.6532 9.81446C14.6532 9.60596 14.5143 9.46696 14.3059 9.46696C14.167 9.46696 14.0281 9.53646 13.9586 9.74496L12.4999 13.5675L11.0412 9.74496C10.9718 9.53646 10.8328 9.46696 10.6939 9.46696C10.4855 9.46696 10.3466 9.60596 10.3466 9.81446C10.3466 9.88396 10.3466 9.95347 10.416 10.023L12.0137 14.1235C12.1526 14.471 12.361 14.5405 12.4999 14.5405C12.6388 14.5405 12.8472 14.471 12.9861 14.1235L14.5837 10.023ZM17.9874 12.1775C18.2652 12.1775 18.3347 11.969 18.3347 11.8995C18.3347 11.83 18.2652 11.6215 17.9874 11.6215H15.9035V10.162H18.1263C18.4041 10.162 18.4736 9.95347 18.4736 9.88397C18.4736 9.81447 18.4041 9.60596 18.1263 9.60596H15.6257C15.3478 9.60596 15.2089 9.74497 15.2089 10.023V14.193C15.2089 14.471 15.3478 14.61 15.6257 14.61H18.1958C18.4736 14.61 18.5431 14.4015 18.5431 14.332C18.5431 14.2625 18.4736 14.054 18.1958 14.054H15.9035V12.386H17.9874V12.1775ZM29.0318 14.5405C28.9623 14.5405 28.8234 14.471 28.6845 14.2625L28.3372 13.2895H26.1839L25.8366 14.2625C25.7671 14.471 25.6282 14.5405 25.4892 14.5405C25.3503 14.5405 25.1419 14.4015 25.1419 14.193C25.1419 14.1235 25.1419 14.054 25.2114 13.9845L26.8785 9.81446C27.0174 9.46696 27.1563 9.46696 27.2953 9.46696C27.4342 9.46696 27.5731 9.53646 27.712 9.81446L29.3791 13.9845C29.4486 14.054 29.4486 14.1235 29.4486 14.193C29.3791 14.4015 29.2402 14.5405 29.0318 14.5405ZM28.1288 12.5945L27.2953 10.3705L26.4617 12.5945H28.1288ZM24.2389 14.5405C24.3779 14.5405 24.5863 14.471 24.5863 14.1235V9.88397C24.5863 9.46697 24.3084 9.39746 24.1695 9.39746C24.0306 9.39746 23.8222 9.46696 23.6832 9.81446L22.0162 13.5675L20.3491 9.81446C20.2102 9.46696 20.0018 9.39746 19.8628 9.39746C19.7239 9.39746 19.4461 9.46697 19.4461 9.88397V14.1235C19.4461 14.471 19.6545 14.471 19.7934 14.471C19.9323 14.471 20.1407 14.4015 20.1407 14.1235V10.9265L21.5994 14.193C21.7383 14.471 21.8772 14.5405 22.0162 14.5405C22.1551 14.5405 22.294 14.471 22.4329 14.193L23.8916 10.857V14.1235C23.8916 14.471 24.1 14.5405 24.2389 14.5405ZM33.7552 14.193C33.7552 14.1235 33.7552 13.9845 33.6163 13.915L31.463 11.83L33.4773 10.0925C33.6163 9.95346 33.6163 9.88396 33.6163 9.81446C33.6163 9.60596 33.4773 9.53647 33.269 9.53647C33.1995 9.53647 33.0606 9.60597 32.9911 9.67547L30.6989 11.7605V9.81446C30.6989 9.46696 30.4905 9.39746 30.3516 9.39746C30.2126 9.39746 30.0043 9.46696 30.0043 9.81446V14.1235C30.0043 14.471 30.2126 14.5405 30.3516 14.5405C30.4905 14.5405 30.6989 14.471 30.6989 14.1235V11.8995L33.13 14.4015C33.1995 14.5405 33.3384 14.5405 33.4079 14.5405C33.6163 14.5405 33.7552 14.332 33.7552 14.193ZM37.2283 12.1775C37.5061 12.1775 37.5756 11.969 37.5756 11.8995C37.5756 11.83 37.5061 11.6215 37.2283 11.6215H35.1444V10.162H37.3672C37.645 10.162 37.7145 9.95347 37.7145 9.88397C37.7145 9.81447 37.645 9.60596 37.3672 9.60596H34.8666C34.5887 9.60596 34.4498 9.74497 34.4498 10.023V14.193C34.4498 14.471 34.5887 14.61 34.8666 14.61H37.4367C37.7145 14.61 37.784 14.4015 37.784 14.332C37.784 14.2625 37.7145 14.054 37.4367 14.054H35.1444V12.386H37.2283V12.1775ZM40.0067 12.247H39.2427V14.1235C39.2427 14.471 39.0343 14.5405 38.8953 14.5405C38.7564 14.5405 38.548 14.471 38.548 14.1235V9.88397C38.548 9.60597 38.687 9.46696 38.9648 9.46696H40.1457C41.1181 9.46696 41.8822 9.81446 41.8822 10.857C41.8822 11.552 41.396 12.0385 40.7014 12.1775L41.8822 13.915C41.9517 13.9845 41.9517 14.1235 41.9517 14.1235C41.9517 14.332 41.8128 14.471 41.6044 14.471C41.5349 14.471 41.396 14.4015 41.3265 14.2625L40.0067 12.247ZM39.2427 11.6215H40.0762C40.7014 11.6215 41.2571 11.413 41.2571 10.7875C41.2571 10.162 40.7708 10.023 40.1457 10.023H39.3121V11.6215H39.2427ZM6.94296 9.46696C6.73458 9.39746 6.5262 9.46697 6.45674 9.67547L5.06751 13.4285L4.09505 9.67547C4.02559 9.53647 3.88666 9.39746 3.74774 9.39746C3.60882 9.39746 3.46989 9.46697 3.40043 9.67547L2.42795 13.4285L1.03872 9.67547C0.969256 9.46697 0.760883 9.39746 0.552498 9.46696C0.344113 9.53646 0.274639 9.74496 0.3441 9.95346L1.94173 14.193C2.01119 14.332 2.08065 14.4015 2.21957 14.471C2.49742 14.5405 2.77526 14.471 2.84473 14.193V14.1235L3.67827 10.857L4.5118 14.1235V14.193C4.58126 14.471 4.92859 14.61 5.13697 14.471C5.2759 14.4015 5.34536 14.332 5.41482 14.193L7.01243 9.95346C7.22081 9.74496 7.15135 9.53646 6.94296 9.46696Z" fill="white"/>
<path d="M28.0593 6.89577C27.9898 6.89577 27.9203 6.89577 27.8509 6.89577C27.573 6.89577 27.2952 6.68727 27.2257 6.40927L26.2533 3.35127L25.2808 6.40927C25.2113 6.68727 24.9335 6.40927 24.6556 6.40927C24.3778 6.40927 24.0999 6.68727 24.0305 6.40927L23.058 3.35127L22.0856 6.40927C22.0161 6.68727 21.7383 6.89577 21.4604 6.89577C21.3909 6.89577 21.3215 6.89577 21.252 6.89577C20.9047 6.75677 20.6963 6.40927 20.8352 6.06177L22.4329 1.12727C22.5023 0.84927 22.7802 1.12727 23.058 1.12727C23.3359 1.12727 23.6137 0.84927 23.6832 1.12727L24.6556 4.18526L25.6281 1.12727C25.6976 0.84927 25.9754 1.12727 26.2533 1.12727C26.5311 1.12727 26.809 0.84927 26.8784 1.12727L28.476 6.06177C28.615 6.40927 28.4066 6.75677 28.0593 6.89577ZM21.0436 0.710266C20.9742 0.710266 20.9047 0.710266 20.8352 0.710266C20.5574 0.710266 20.2795 0.918774 20.2101 1.19677L19.2376 4.25477L18.2652 1.19677C18.1957 0.918774 17.9179 1.19677 17.64 1.19677C17.3622 1.19677 17.0843 0.918774 17.0148 1.19677L16.0424 4.25477L15.0699 1.19677C15.0005 0.918774 14.7226 0.710266 14.4448 0.710266C14.3753 0.710266 14.3058 0.710266 14.2364 0.710266C13.8891 0.849266 13.6807 1.19677 13.8196 1.54427L15.4172 6.47876C15.4867 6.75676 15.7645 6.47876 16.0424 6.47876C16.3202 6.47876 16.5981 6.75676 16.6675 6.47876L17.64 3.42077L18.6125 6.47876C18.6819 6.75676 18.9598 6.47876 19.2376 6.47876C19.5155 6.47876 19.7933 6.75676 19.8628 6.47876L21.4604 1.54427C21.5993 1.19677 21.3909 0.779766 21.0436 0.710266Z" fill="white"/>
<path d="M26.2532 0.640564C26.5311 0.640564 26.809 0.84927 26.8784 1.12727C26.9479 1.26627 26.9478 1.40506 26.8784 1.54406L26.2532 3.42056L25.6281 1.54406C25.5586 1.40506 25.5587 1.26627 25.6281 1.12727C25.6976 0.84927 25.9754 0.640564 26.2532 0.640564ZM22.3634 1.12706C22.2939 1.26606 22.2939 1.40506 22.3634 1.54406L22.9885 3.42056L23.6137 1.54406C23.6831 1.40506 23.6831 1.26606 23.6137 1.12706C23.5442 0.849061 23.2664 0.640564 22.9885 0.640564C22.7107 0.640564 22.4328 0.849061 22.3634 1.12706ZM19.2376 6.89555C19.5155 6.89555 19.7933 6.68706 19.8628 6.40906C19.9322 6.27006 19.9322 6.13105 19.8628 5.99205L19.2376 4.11556L18.6125 5.99205C18.543 6.13105 18.543 6.27006 18.6125 6.40906C18.6819 6.68706 18.9598 6.89555 19.2376 6.89555ZM15.9729 6.89555C16.2508 6.89555 16.5286 6.68706 16.5981 6.40906C16.6675 6.27006 16.6675 6.13105 16.5981 5.99205L15.9729 4.11556L15.3478 5.99205C15.2783 6.13105 15.2783 6.27006 15.3478 6.40906C15.4867 6.68706 15.6951 6.89555 15.9729 6.89555Z" fill="white"/>
<path d="M17.64 0.640564C17.9179 0.640564 18.1957 0.849061 18.2652 1.12706C18.3346 1.26606 18.3346 1.40506 18.2652 1.54406L17.64 3.42077L17.0149 1.54406C16.9454 1.40506 16.9454 1.26606 17.0149 1.12706C17.0843 0.849061 17.3622 0.640564 17.64 0.640564ZM24.6556 6.89555C24.9335 6.89555 25.2113 6.68727 25.2808 6.40927C25.3503 6.27027 25.3503 6.13105 25.2808 5.99205L24.6556 4.11556L24.0305 5.99205C23.961 6.13105 23.961 6.27027 24.0305 6.40927C24.0999 6.68727 24.3083 6.89555 24.6556 6.89555Z" fill="white"/>
</svg>
